<?xml version="1.0" encoding="UTF-8"?>
<svg id="Ebene_1" xmlns="http://www.w3.org/2000/svg" version="1.1" viewBox="0 0 175.7 175.7">
  <!-- Generator: Adobe Illustrator 29.0.0, SVG Export Plug-In . SVG Version: 2.1.0 Build 186)  -->
  <defs>
    <style>
      .st0 {
        fill: #676568;
      }

      .st1 {
        fill: #85d5ea;
      }

      .st2 {
        fill: #fff;
      }

      .st3 {
        fill: #a974af;
      }

      .st4 {
        fill: #7ec681;
      }
    </style>
  </defs>
  <polygon class="st1" points="32.4 32.5 87.9 .4 143.4 32.5 143.4 64.1 87.9 32.1 32.4 64.1 32.4 32.5"/>
  <polygon class="st3" points="170.4 143.4 170.4 79.3 142.3 63 142.3 127.1 86.8 159.2 114.9 175.4 170.4 143.4"/>
  <polygon class="st4" points="60.9 175.4 5.4 143.4 5.4 79.3 32.6 63.5 32.6 127.6 88.1 159.7 60.9 175.4"/>
  <polygon class="st0" points="87.9 31.6 32.4 63.7 32.4 127.8 87.9 159.8 143.4 127.8 143.4 63.7 87.9 31.6"/>
  <path class="st2" d="M47.3,110.4v-21.6c0-5.1,2.6-7.7,7.7-7.7h5.9c2.4,0,4.1.6,5.1,1.9,1.1-1.3,2.8-1.9,5.1-1.9h5.9c5.1,0,7.7,2.6,7.7,7.7v19.3l-4.9,2.3h-.3v-21.6c0-2.1-.9-3.1-2.6-3.1h-5.9c-1.7,0-2.6,1-2.6,3.1v19.3l-4.9,2.3h-.3v-21.6c0-2.1-.9-3.1-2.6-3.1h-5.9c-1.7,0-2.6,1-2.6,3.1v19.3l-4.9,2.3h-.3.4Z"/>
  <path class="st2" d="M94.1,108.9c-.6-.6-.9-1.4-.9-2.2s.3-1.6.9-2.2,1.3-.9,2.2-.9,1.6.3,2.2.9.9,1.4.9,2.2-.3,1.6-.9,2.2-1.3.9-2.2.9-1.6-.3-2.2-.9Z"/>
  <path class="st2" d="M114.3,109.3c-5.1,0-7.7-2.6-7.7-7.7v-12.8c0-5.1,2.6-7.7,7.7-7.7h5.9c5.1,0,7.7,2.6,7.7,7.7v1.4l-4.9,2.3h-.3v-3.7c0-2.1-.9-3.1-2.6-3.1h-5.9c-1.7,0-2.6,1-2.6,3.1v12.8c0,2.1.9,3.1,2.6,3.1h5.9c1.7,0,2.6-1,2.6-3.1v-1.4l4.9-2.3h.3v3.7c0,5.1-2.6,7.7-7.7,7.7h-5.9Z"/>
</svg>