<?xml version="1.0" encoding="UTF-8"?>
<svg id="Ebene_1" xmlns="http://www.w3.org/2000/svg" version="1.1" viewBox="0 0 3056.9 1000">
  <!-- Generator: Adobe Illustrator 29.0.0, SVG Export Plug-In . SVG Version: 2.1.0 Build 186)  -->
  <defs>
    <style>
      .st0 {
        fill: #676568;
      }

      .st1 {
        fill: #676568;
      }

      .st2 {
        fill: #85d5ea;
      }

      .st3 {
        fill: #a974af;
      }

      .st4 {
        fill: #7ec681;
      }
    </style>
  </defs>
  <polygon class="st2" points="202.3 202.9 500.1 30.7 797.8 202.9 797.8 372.4 500.1 200.7 202.3 372.4 202.3 202.9"/>
  <polygon class="st3" points="942.6 797.8 942.6 453.9 791.9 366.5 791.9 710.3 494.1 882.5 644.9 969.4 942.6 797.8"/>
  <polygon class="st4" points="355.2 969.4 57.5 797.8 57.5 453.9 203.4 369.2 203.4 713 501.1 885.2 355.2 969.4"/>
  <polygon class="st0" points="500.1 198.1 202.3 370.2 202.3 714.1 500.1 885.7 797.8 714.1 797.8 370.2 500.1 198.1"/>
  <g>
    <g>
      <path class="st1" d="M1247,786.6c-35.1,0-52.7-17.6-52.7-52.7v-87.9c0-35.1,17.6-52.7,52.7-52.7h40.4c35.1,0,52.7,17.6,52.7,52.7v9.3l-33.4,15.8h-1.8v-25.1c0-14.1-5.9-21.1-17.6-21.1h-40.4c-11.7,0-17.6,7-17.6,21.1v87.9c0,14.1,5.9,21.1,17.6,21.1h40.4c11.7,0,17.6-7,17.6-21.1v-9.3l33.4-15.8h1.8v25.1c0,35.1-17.6,52.7-52.7,52.7h-40.4Z"/>
      <path class="st1" d="M1446.6,786.6c-35.1,0-52.7-17.6-52.7-52.7v-87.9c0-35.1,17.6-52.7,52.7-52.7h40.4c35.1,0,52.7,17.6,52.7,52.7v87.9c0,35.1-17.6,52.7-52.7,52.7h-40.4ZM1446.6,755h40.4c11.7,0,17.6-7,17.6-21.1v-87.9c0-14.1-5.9-21.1-17.6-21.1h-40.4c-11.7,0-17.6,7-17.6,21.1v87.9c0,14.1,5.9,21.1,17.6,21.1Z"/>
      <path class="st1" d="M1593.5,793.6v-147.6c0-35.1,17.6-52.7,52.7-52.7h40.4c16.2,0,27.9,4.3,35.1,13,7.7-8.7,19.4-13,35.1-13h40.4c35.1,0,52.7,17.6,52.7,52.7v131.8l-33.4,15.8h-1.8v-147.6c0-14.1-5.9-21.1-17.6-21.1h-40.4c-11.7,0-17.6,7-17.6,21.1v131.8l-33.4,15.8h-1.8v-147.6c0-14.1-5.9-21.1-17.6-21.1h-40.4c-11.7,0-17.6,7-17.6,21.1v131.8l-33.4,15.8h-1.8Z"/>
      <path class="st1" d="M1903.8,793.6v-147.6c0-35.1,17.6-52.7,52.7-52.7h40.4c16.2,0,27.9,4.3,35.1,13,7.7-8.7,19.4-13,35.1-13h40.4c35.1,0,52.7,17.6,52.7,52.7v131.8l-33.4,15.8h-1.8v-147.6c0-14.1-5.9-21.1-17.6-21.1h-40.4c-11.7,0-17.6,7-17.6,21.1v131.8l-33.4,15.8h-1.8v-147.6c0-14.1-5.9-21.1-17.6-21.1h-40.4c-11.7,0-17.6,7-17.6,21.1v131.8l-33.4,15.8h-1.8Z"/>
      <path class="st1" d="M2266.8,786.6c-35.1,0-52.7-17.6-52.7-52.7v-131.8l33.4-15.8h1.8v147.6c0,14.1,5.9,21.1,17.6,21.1h40.4c11.7,0,17.6-7,17.6-21.1v-131.8l33.4-15.8h1.8v147.6c0,35.1-17.6,52.7-52.7,52.7h-40.4Z"/>
      <path class="st1" d="M2413.7,793.6v-147.6c0-35.1,17.6-52.7,52.7-52.7h40.4c35.1,0,52.7,17.6,52.7,52.7v131.8l-33.4,15.8h-1.8v-147.6c0-14.1-5.9-21.1-17.6-21.1h-40.4c-11.7,0-17.6,7-17.6,21.1v131.8l-33.4,15.8h-1.8Z"/>
      <path class="st1" d="M2624.8,554.5c-4.1-4.2-6.1-9.3-6.1-15.2s2-11,6.1-15.2c4.1-4.2,9.1-6.3,14.9-6.3s10.8,2.1,14.9,6.3c4.1,4.2,6.1,9.3,6.1,15.2s-2,11-6.1,15.2c-4.1,4.2-9.1,6.3-14.9,6.3s-10.8-2.1-14.9-6.3ZM2622.1,793.6v-191.5l33.4-15.8h1.8v191.5l-33.4,15.8h-1.8Z"/>
      <path class="st1" d="M2743.1,793.6v-168.3h-45.2v-1.8l14.2-30.2h30.9v-63.3l33.4-15.8h1.8v79.1h45.2v1.8l-14.2,30.2h-30.9v152.5l-33.4,15.8h-1.8Z"/>
      <path class="st1" d="M2907.9,786.6c-35.1,0-52.7-17.6-52.7-52.7v-131.8l33.4-15.8h1.8v147.6c0,14.1,5.9,21.1,17.6,21.1h40.4c11.7,0,17.6-7,17.6-21.1v-131.8l33.4-15.8h1.8v219.6c0,35.1-17.6,52.7-52.7,52.7h-74.8v-1.8l14.1-29.9h60.8c11.7,0,17.6-7,17.6-21.1v-24.6c-4.6,3.5-10.4,5.3-17.6,5.3h-40.4Z"/>
    </g>
    <g>
      <path class="st1" d="M1083.7,448.8v-147.6c0-35.1,17.6-52.7,52.7-52.7h40.4c16.2,0,27.9,4.3,35.1,13,7.7-8.7,19.4-13,35.1-13h40.4c35.1,0,52.7,17.6,52.7,52.7v131.8l-33.4,15.8h-1.8v-147.6c0-14.1-5.9-21.1-17.6-21.1h-40.4c-11.7,0-17.6,7-17.6,21.1v131.8l-33.4,15.8h-1.8v-147.6c0-14.1-5.9-21.1-17.6-21.1h-40.4c-11.7,0-17.6,7-17.6,21.1v131.8l-33.4,15.8h-1.8Z"/>
      <path class="st1" d="M1445,441.7c-35.1,0-52.7-17.6-52.7-52.7v-87.9c0-35.1,17.6-52.7,52.7-52.7h40.4c35.1,0,52.7,17.6,52.7,52.7v9.3l-110.2,85.2c1.6,9.6,7.3,14.4,17,14.4h40.4c11.7,0,17.6-7,17.6-21.1v-9.3l33.4-15.8h1.8v25.1c0,35.1-17.6,52.7-52.7,52.7h-40.4ZM1427.4,359l75.4-58.3c-.7-13.7-6.5-20.6-17.4-20.6h-40.4c-11.7,0-17.6,7-17.6,21.1v57.8Z"/>
      <path class="st1" d="M1613.3,448.8v-168.3h-45.2v-1.8l14.2-30.2h30.9v-63.3l33.4-15.8h1.8v79.1h45.2v1.8l-14.2,30.2h-30.9v152.5l-33.4,15.8h-1.8Z"/>
      <path class="st1" d="M1767.5,441.7c-35.1,0-52.7-17.6-52.7-52.7v-24.1c0-35.1,17.6-52.7,52.7-52.7h36.9c6.1,0,11.9,1.8,17.6,5.3v-16.3c0-14.1-5.9-21.1-17.6-21.1h-62.9v-1.8l14.1-29.9h48.8c35.1,0,52.7,17.6,52.7,52.7v131.8l-33.4,15.8h-1.8v-12.3c-4.5,3.5-10.3,5.3-17.6,5.3h-36.9ZM1767.5,410.1h36.9c11.7,0,17.6-7,17.6-21.1v-24.1c0-14.1-5.9-21.1-17.6-21.1h-36.9c-11.7,0-17.6,7-17.6,21.1v24.1c0,14.1,5.9,21.1,17.6,21.1Z"/>
      <path class="st1" d="M1961.8,441.7c-35.1,0-52.7-17.6-52.7-52.7v-87.9c0-35.1,17.6-52.7,52.7-52.7h40.4c8,0,13.8,1.8,17.6,5.4v-68.7l33.4-15.8h1.8v219.6c0,35.1-17.6,52.7-52.7,52.7h-40.4ZM1961.8,410.1h40.4c11.7,0,17.6-7,17.6-21.1v-87.9c0-14.1-5.9-21.1-17.6-21.1h-40.4c-11.7,0-17.6,7-17.6,21.1v87.9c0,14.1,5.9,21.1,17.6,21.1Z"/>
      <path class="st1" d="M2159.6,441.7c-35.1,0-52.7-17.6-52.7-52.7v-24.1c0-35.1,17.6-52.7,52.7-52.7h36.9c6.1,0,11.9,1.8,17.6,5.3v-16.3c0-14.1-5.9-21.1-17.6-21.1h-62.9v-1.8l14.1-29.9h48.8c35.1,0,52.7,17.6,52.7,52.7v131.8l-33.4,15.8h-1.8v-12.3c-4.5,3.5-10.3,5.3-17.6,5.3h-36.9ZM2159.6,410.1h36.9c11.7,0,17.6-7,17.6-21.1v-24.1c0-14.1-5.9-21.1-17.6-21.1h-36.9c-11.7,0-17.6,7-17.6,21.1v24.1c0,14.1,5.9,21.1,17.6,21.1Z"/>
      <path class="st1" d="M2324.4,448.8v-168.3h-45.2v-1.8l14.2-30.2h30.9v-63.3l33.4-15.8h1.8v79.1h45.2v1.8l-14.2,30.2h-30.9v152.5l-33.4,15.8h-1.8Z"/>
      <path class="st1" d="M2487.5,441.7c-35.1,0-52.7-17.6-52.7-52.7v-87.9c0-35.1,17.6-52.7,52.7-52.7h40.4c35.1,0,52.7,17.6,52.7,52.7v9.3l-110.2,85.2c1.6,9.6,7.3,14.4,17,14.4h40.4c11.7,0,17.6-7,17.6-21.1v-9.3l33.4-15.8h1.8v25.1c0,35.1-17.6,52.7-52.7,52.7h-40.4ZM2469.9,359l75.4-58.3c-.7-13.7-6.5-20.6-17.4-20.6h-40.4c-11.7,0-17.6,7-17.6,21.1v57.8Z"/>
      <path class="st1" d="M2632.3,448.8v-147.6c0-35.1,17.6-52.7,52.7-52.7h40.4c35.1,0,52.7,17.6,52.7,52.7v131.8l-33.4,15.8h-1.8v-147.6c0-14.1-5.9-21.1-17.6-21.1h-40.4c-11.7,0-17.6,7-17.6,21.1v131.8l-33.4,15.8h-1.8Z"/>
      <path class="st1" d="M2841.8,438.9c-4.1-4.2-6.1-9.3-6.1-15.2s2-11,6.1-15.2c4.1-4.2,9.1-6.3,14.9-6.3s10.8,2.1,14.9,6.3c4.1,4.2,6.1,9.3,6.1,15.2s-2,11-6.1,15.2-9.1,6.3-14.9,6.3-10.8-2.1-14.9-6.3Z"/>
    </g>
  </g>
</svg>