<?xml version="1.0" encoding="UTF-8"?>
<svg id="Ebene_1" xmlns="http://www.w3.org/2000/svg" version="1.1" viewBox="0 0 1000 1000">
  <!-- Generator: Adobe Illustrator 29.0.0, SVG Export Plug-In . SVG Version: 2.1.0 Build 186)  -->
  <defs>
    <style>
      .st0 {
        fill: #676568;
      }

      .st1 {
        fill: #85d5ea;
      }

      .st2 {
        fill: #fff;
      }

      .st3 {
        fill: #a974af;
      }

      .st4 {
        fill: #7ec681;
      }
    </style>
  </defs>
  <polygon class="st1" points="202.3 202.9 500.1 30.7 797.8 202.9 797.8 372.4 500.1 200.7 202.3 372.4 202.3 202.9"/>
  <polygon class="st3" points="942.6 797.8 942.6 453.9 791.9 366.5 791.9 710.3 494.1 882.5 644.9 969.4 942.6 797.8"/>
  <polygon class="st4" points="355.2 969.4 57.5 797.8 57.5 453.9 203.4 369.2 203.4 713 501.1 885.2 355.2 969.4"/>
  <polygon class="st0" points="500.1 198.1 202.3 370.2 202.3 714.1 500.1 885.7 797.8 714.1 797.8 370.2 500.1 198.1"/>
  <g>
    <g>
      <path class="st2" d="M288.4,622.4c-9.3,0-14-4.7-14-14v-23.4c0-9.3,4.7-14,14-14h10.8c9.3,0,14,4.7,14,14v2.5l-8.9,4.2h-.5v-6.7c0-3.7-1.6-5.6-4.7-5.6h-10.8c-3.1,0-4.7,1.9-4.7,5.6v23.4c0,3.7,1.6,5.6,4.7,5.6h10.8c3.1,0,4.7-1.9,4.7-5.6v-2.5l8.9-4.2h.5v6.7c0,9.3-4.7,14-14,14h-10.8Z"/>
      <path class="st2" d="M341.5,622.4c-9.3,0-14-4.7-14-14v-23.4c0-9.3,4.7-14,14-14h10.8c9.3,0,14,4.7,14,14v23.4c0,9.3-4.7,14-14,14h-10.8ZM341.5,614h10.8c3.1,0,4.7-1.9,4.7-5.6v-23.4c0-3.7-1.6-5.6-4.7-5.6h-10.8c-3.1,0-4.7,1.9-4.7,5.6v23.4c0,3.7,1.6,5.6,4.7,5.6Z"/>
      <path class="st2" d="M380.6,624.3v-39.3c0-9.3,4.7-14,14-14h10.8c4.3,0,7.4,1.2,9.3,3.5,2.1-2.3,5.2-3.5,9.3-3.5h10.8c9.3,0,14,4.7,14,14v35.1l-8.9,4.2h-.5v-39.3c0-3.7-1.6-5.6-4.7-5.6h-10.8c-3.1,0-4.7,1.9-4.7,5.6v35.1l-8.9,4.2h-.5v-39.3c0-3.7-1.6-5.6-4.7-5.6h-10.8c-3.1,0-4.7,1.9-4.7,5.6v35.1l-8.9,4.2h-.5Z"/>
      <path class="st2" d="M463.2,624.3v-39.3c0-9.3,4.7-14,14-14h10.8c4.3,0,7.4,1.2,9.3,3.5,2.1-2.3,5.2-3.5,9.3-3.5h10.8c9.3,0,14,4.7,14,14v35.1l-8.9,4.2h-.5v-39.3c0-3.7-1.6-5.6-4.7-5.6h-10.8c-3.1,0-4.7,1.9-4.7,5.6v35.1l-8.9,4.2h-.5v-39.3c0-3.7-1.6-5.6-4.7-5.6h-10.8c-3.1,0-4.7,1.9-4.7,5.6v35.1l-8.9,4.2h-.5Z"/>
      <path class="st2" d="M559.8,622.4c-9.3,0-14-4.7-14-14v-35.1l8.9-4.2h.5v39.3c0,3.7,1.6,5.6,4.7,5.6h10.8c3.1,0,4.7-1.9,4.7-5.6v-35.1l8.9-4.2h.5v39.3c0,9.3-4.7,14-14,14h-10.8Z"/>
      <path class="st2" d="M598.9,624.3v-39.3c0-9.3,4.7-14,14-14h10.8c9.3,0,14,4.7,14,14v35.1l-8.9,4.2h-.5v-39.3c0-3.7-1.6-5.6-4.7-5.6h-10.8c-3.1,0-4.7,1.9-4.7,5.6v35.1l-8.9,4.2h-.5Z"/>
      <path class="st2" d="M655,560.7c-1.1-1.1-1.6-2.5-1.6-4s.5-2.9,1.6-4,2.4-1.7,4-1.7,2.9.6,4,1.7c1.1,1.1,1.6,2.5,1.6,4s-.5,2.9-1.6,4-2.4,1.7-4,1.7-2.9-.6-4-1.7ZM654.3,624.3v-51l8.9-4.2h.5v51l-8.9,4.2h-.5Z"/>
      <path class="st2" d="M686.5,624.3v-44.8h-12v-.5l3.8-8h8.2v-16.8l8.9-4.2h.5v21h12v.5l-3.8,8h-8.2v40.6l-8.9,4.2h-.5Z"/>
      <path class="st2" d="M730.3,622.4c-9.3,0-14-4.7-14-14v-35.1l8.9-4.2h.5v39.3c0,3.7,1.6,5.6,4.7,5.6h10.8c3.1,0,4.7-1.9,4.7-5.6v-35.1l8.9-4.2h.5v58.4c0,9.3-4.7,14-14,14h-19.9v-.5l3.7-7.9h16.2c3.1,0,4.7-1.9,4.7-5.6v-6.5c-1.2.9-2.8,1.4-4.7,1.4h-10.8Z"/>
    </g>
    <g>
      <path class="st2" d="M245,532.5v-39.3c0-9.3,4.7-14,14-14h10.8c4.3,0,7.4,1.2,9.3,3.5,2.1-2.3,5.2-3.5,9.3-3.5h10.8c9.3,0,14,4.7,14,14v35.1l-8.9,4.2h-.5v-39.3c0-3.7-1.6-5.6-4.7-5.6h-10.8c-3.1,0-4.7,1.9-4.7,5.6v35.1l-8.9,4.2h-.5v-39.3c0-3.7-1.6-5.6-4.7-5.6h-10.8c-3.1,0-4.7,1.9-4.7,5.6v35.1l-8.9,4.2h-.5Z"/>
      <path class="st2" d="M341.1,530.7c-9.3,0-14-4.7-14-14v-23.4c0-9.3,4.7-14,14-14h10.8c9.3,0,14,4.7,14,14v2.5l-29.3,22.7c.4,2.6,1.9,3.8,4.5,3.8h10.8c3.1,0,4.7-1.9,4.7-5.6v-2.5l8.9-4.2h.5v6.7c0,9.3-4.7,14-14,14h-10.8ZM336.4,508.7l20.1-15.5c-.2-3.7-1.7-5.5-4.6-5.5h-10.8c-3.1,0-4.7,1.9-4.7,5.6v15.4Z"/>
      <path class="st2" d="M385.9,532.5v-44.8h-12v-.5l3.8-8h8.2v-16.8l8.9-4.2h.5v21h12v.5l-3.8,8h-8.2v40.6l-8.9,4.2h-.5Z"/>
      <path class="st2" d="M426.9,530.7c-9.3,0-14-4.7-14-14v-6.4c0-9.3,4.7-14,14-14h9.8c1.6,0,3.2.5,4.7,1.4v-4.3c0-3.7-1.6-5.6-4.7-5.6h-16.7v-.5l3.7-7.9h13c9.3,0,14,4.7,14,14v35.1l-8.9,4.2h-.5v-3.3c-1.2.9-2.7,1.4-4.7,1.4h-9.8ZM426.9,522.3h9.8c3.1,0,4.7-1.9,4.7-5.6v-6.4c0-3.7-1.6-5.6-4.7-5.6h-9.8c-3.1,0-4.7,1.9-4.7,5.6v6.4c0,3.7,1.6,5.6,4.7,5.6Z"/>
      <path class="st2" d="M478.6,530.7c-9.3,0-14-4.7-14-14v-23.4c0-9.3,4.7-14,14-14h10.8c2.1,0,3.7.5,4.7,1.4v-18.3l8.9-4.2h.5v58.4c0,9.3-4.7,14-14,14h-10.8ZM478.6,522.3h10.8c3.1,0,4.7-1.9,4.7-5.6v-23.4c0-3.7-1.6-5.6-4.7-5.6h-10.8c-3.1,0-4.7,1.9-4.7,5.6v23.4c0,3.7,1.6,5.6,4.7,5.6Z"/>
      <path class="st2" d="M531.2,530.7c-9.3,0-14-4.7-14-14v-6.4c0-9.3,4.7-14,14-14h9.8c1.6,0,3.2.5,4.7,1.4v-4.3c0-3.7-1.6-5.6-4.7-5.6h-16.7v-.5l3.7-7.9h13c9.3,0,14,4.7,14,14v35.1l-8.9,4.2h-.5v-3.3c-1.2.9-2.7,1.4-4.7,1.4h-9.8ZM531.2,522.3h9.8c3.1,0,4.7-1.9,4.7-5.6v-6.4c0-3.7-1.6-5.6-4.7-5.6h-9.8c-3.1,0-4.7,1.9-4.7,5.6v6.4c0,3.7,1.6,5.6,4.7,5.6Z"/>
      <path class="st2" d="M575.1,532.5v-44.8h-12v-.5l3.8-8h8.2v-16.8l8.9-4.2h.5v21h12v.5l-3.8,8h-8.2v40.6l-8.9,4.2h-.5Z"/>
      <path class="st2" d="M618.5,530.7c-9.3,0-14-4.7-14-14v-23.4c0-9.3,4.7-14,14-14h10.8c9.3,0,14,4.7,14,14v2.5l-29.3,22.7c.4,2.6,1.9,3.8,4.5,3.8h10.8c3.1,0,4.7-1.9,4.7-5.6v-2.5l8.9-4.2h.5v6.7c0,9.3-4.7,14-14,14h-10.8ZM613.8,508.7l20.1-15.5c-.2-3.7-1.7-5.5-4.6-5.5h-10.8c-3.1,0-4.7,1.9-4.7,5.6v15.4Z"/>
      <path class="st2" d="M657,532.5v-39.3c0-9.3,4.7-14,14-14h10.8c9.3,0,14,4.7,14,14v35.1l-8.9,4.2h-.5v-39.3c0-3.7-1.6-5.6-4.7-5.6h-10.8c-3.1,0-4.7,1.9-4.7,5.6v35.1l-8.9,4.2h-.5Z"/>
      <path class="st2" d="M712.7,529.9c-1.1-1.1-1.6-2.5-1.6-4s.5-2.9,1.6-4c1.1-1.1,2.4-1.7,4-1.7s2.9.6,4,1.7c1.1,1.1,1.6,2.5,1.6,4s-.5,2.9-1.6,4-2.4,1.7-4,1.7-2.9-.6-4-1.7Z"/>
    </g>
  </g>
</svg>